<svg width="872" height="872" viewBox="0 0 872 872" fill="none" xmlns="http://www.w3.org/2000/svg">
<circle cx="436" cy="436" r="427.5" fill="#FFF9F9" stroke="black" stroke-width="17"/>
<path d="M225.08 167.314C216.082 161.96 206.378 157.79 196.205 154.947L203.244 123.131C216.256 126.599 228.686 131.766 240.229 138.45L225.08 167.314ZM201.307 122.628L194.273 154.425C184.837 151.957 175.016 150.626 165 150.543V118.003C177.411 118.084 189.587 119.67 201.307 122.628ZM226.793 168.353L241.956 139.465C253.051 146.086 263.299 154.123 272.421 163.41L248.513 185.564C241.945 178.978 234.65 173.208 226.793 168.353ZM249.914 186.992L273.814 164.846C281.58 172.963 288.5 182.004 294.394 191.862L268.307 211.855C263.211 202.679 257.007 194.348 249.914 186.992ZM269.277 213.631L295.417 193.599C296.141 194.847 296.85 196.109 297.541 197.383L309.481 219.383L283.668 240.148L269.277 213.631ZM284.638 241.935L310.45 221.17L321.513 241.554L298.913 268.238L284.638 241.935ZM303.739 265.635L322.537 243.44L326.676 251.066L303.739 265.635Z" fill="#939393" stroke="#787575" stroke-width="2"/>
<path d="M369.251 254.02L370.083 255.268L370.915 254.02L410.268 195H557.091C594.535 195 625 225.46 625 262.898V676H281.943V322.962V322.691L281.806 322.457L247.35 263.544L337.398 206.249L369.251 254.02Z" fill="#B1180C" stroke="black" stroke-width="2"/>
<path d="M404.988 269L432.457 232H557.296L546.242 251.797C546.242 251.797 546.241 251.797 546.241 251.797C540.333 262.375 528.44 269 515.151 269H404.988Z" fill="white" stroke="black" stroke-width="2"/>
<g filter="url(#filter0_if)">
<path d="M499.752 519.333L521.702 544.061C528.043 551.204 538.976 551.847 546.111 545.496C553.232 539.158 553.873 528.25 547.545 521.121L523.617 494.166C519.557 489.591 517.314 483.686 517.314 477.569V394.432C517.314 388.315 519.557 382.41 523.618 377.835L547.545 350.88C553.874 343.751 553.233 332.843 546.112 326.505C538.977 320.154 528.044 320.797 521.703 327.94L499.753 352.667C495.009 358.012 488.204 361.071 481.057 361.071H426.945C419.798 361.071 412.992 358.012 408.248 352.667L386.298 327.939C379.957 320.796 369.024 320.153 361.889 326.504C354.768 332.842 354.127 343.75 360.455 350.879L384.382 377.834C388.443 382.409 390.686 388.314 390.686 394.431V477.568C390.686 483.685 388.443 489.59 384.382 494.165L360.455 521.12C354.126 528.249 354.767 539.157 361.888 545.495C369.023 551.846 379.956 551.203 386.297 544.06L408.247 519.333C412.991 513.988 419.796 510.929 426.943 510.929H481.055C488.202 510.929 495.008 513.988 499.752 519.333Z" fill="#E51E10"/>
</g>
<defs>
<filter id="filter0_if" x="352.098" y="318.131" width="203.804" height="235.737" filterUnits="userSpaceOnUse" color-interpolation-filters="sRGB">
<feFlood flood-opacity="0" result="BackgroundImageFix"/>
<feBlend mode="normal" in="SourceGraphic" in2="BackgroundImageFix" result="shape"/>
<feColorMatrix in="SourceAlpha" type="matrix" values="0 0 0 0 0 0 0 0 0 0 0 0 0 0 0 0 0 0 127 0" result="hardAlpha"/>
<feOffset dx="3" dy="1"/>
<feGaussianBlur stdDeviation="5"/>
<feComposite in2="hardAlpha" operator="arithmetic" k2="-1" k3="1"/>
<feColorMatrix type="matrix" values="0 0 0 0 0 0 0 0 0 0 0 0 0 0 0 0 0 0 0.6 0"/>
<feBlend mode="normal" in2="shape" result="effect1_innerShadow"/>
<feGaussianBlur stdDeviation="2" result="effect2_foregroundBlur"/>
</filter>
</defs>
</svg>
