<svg width="512" height="512" viewBox="0 0 512 512" fill="none" xmlns="http://www.w3.org/2000/svg">
<path d="M256 16C208.533 16 162.131 30.0758 122.663 56.4473C83.1955 82.8188 52.4341 120.302 34.269 164.156C16.104 208.01 11.3512 256.266 20.6116 302.822C29.8721 349.377 52.7299 392.141 86.2945 425.706C119.859 459.27 162.623 482.128 209.178 491.388C255.734 500.649 303.99 495.896 347.844 477.731C391.698 459.566 429.181 428.805 455.553 389.337C481.924 349.869 496 303.468 496 256C495.922 192.372 470.611 131.373 425.619 86.3809C380.627 41.3891 319.628 16.0783 256 16Z" fill="white" fill-opacity="0.54"/>
<path d="M279.221 383.322C272.235 393.418 256 418.395 256 432.019C256 440.501 259.371 448.635 265.373 454.633C271.374 460.631 279.513 464 288 464C296.487 464 304.626 460.631 310.627 454.633C316.629 448.635 320 440.501 320 432.019C320 418.395 303.765 393.418 296.779 383.322C295.745 381.978 294.415 380.889 292.893 380.139C291.371 379.39 289.697 379 288 379C286.303 379 284.629 379.39 283.107 380.139C281.585 380.889 280.255 381.978 279.221 383.322ZM288 442.679C285.171 442.679 282.458 441.556 280.458 439.557C278.457 437.558 277.333 434.846 277.333 432.019C279.656 423.874 283.256 416.149 288 409.131C292.755 416.142 296.356 423.87 298.667 432.019C298.667 434.846 297.543 437.558 295.542 439.557C293.542 441.556 290.829 442.679 288 442.679Z" fill="black"/>
<path d="M232.779 340.322C231.745 338.978 230.415 337.889 228.893 337.139C227.371 336.39 225.697 336 224 336C222.303 336 220.629 336.39 219.107 337.139C217.585 337.889 216.255 338.978 215.221 340.322C208.235 350.418 192 375.395 192 389.019C192 397.501 195.371 405.635 201.373 411.633C207.374 417.631 215.513 421 224 421C232.487 421 240.626 417.631 246.627 411.633C252.629 405.635 256 397.501 256 389.019C256 375.395 239.765 350.418 232.779 340.322ZM224 399.679C221.171 399.679 218.458 398.556 216.458 396.557C214.457 394.558 213.333 391.846 213.333 389.019C215.656 380.874 219.256 373.149 224 366.131C228.755 373.142 232.356 380.87 234.667 389.019C234.667 391.846 233.543 394.558 231.542 396.557C229.542 398.556 226.829 399.679 224 399.679Z" fill="black"/>
<path d="M256 16C208.532 16 162.131 30.0758 122.663 56.4473C83.1953 82.8188 52.4339 120.302 34.2689 164.156C16.1039 208.01 11.3511 256.266 20.6115 302.822C29.872 349.377 52.7298 392.141 86.2944 425.706C119.859 459.27 162.623 482.128 209.178 491.388C255.734 500.649 303.99 495.896 347.844 477.731C391.698 459.566 429.181 428.805 455.553 389.337C481.924 349.869 496 303.468 496 256C495.922 192.372 470.611 131.373 425.619 86.3809C380.627 41.3891 319.628 16.0783 256 16ZM256 480C211.697 480 168.389 466.863 131.552 442.249C94.7156 417.636 66.005 382.652 49.051 341.721C32.0969 300.79 27.661 255.752 36.3041 212.3C44.9472 168.848 66.2811 128.935 97.6081 97.6081C128.935 66.2811 168.848 44.9472 212.3 36.3041C255.751 27.661 300.79 32.097 341.721 49.051C382.652 66.005 417.636 94.7157 442.249 131.552C466.863 168.389 480 211.697 480 256C479.934 315.388 456.313 372.326 414.319 414.319C372.326 456.313 315.388 479.934 256 480Z" fill="black"/>
<path d="M138.511 253.23L138.511 253.319L138.514 253.408C139.674 283.014 151.994 311.083 173 331.977C174.023 333.012 174.597 334.409 174.597 335.865C174.597 337.322 174.022 338.719 172.997 339.755C172.996 339.756 172.994 339.758 172.992 339.76L118.087 394.664C118.085 394.666 118.084 394.668 118.082 394.67C117.046 395.694 115.649 396.269 114.193 396.269C112.744 396.269 111.353 395.7 110.32 394.686C82.2091 365.774 63.1991 329.249 55.6464 289.637C48.0912 250.012 52.333 209.04 67.846 171.803C83.3589 134.567 109.461 102.702 142.914 80.1611C176.357 57.6274 215.677 45.4023 256 45.0002C296.323 45.4023 335.643 57.6274 369.086 80.1611C379.857 87.4182 389.865 95.6418 399.003 104.7C418.249 123.777 433.636 146.555 444.154 171.803C459.667 209.04 463.909 250.012 456.354 289.637C448.803 329.237 429.803 365.752 401.706 394.659C400.645 395.656 399.25 396.222 397.794 396.245C396.341 396.232 394.948 395.662 393.902 394.654C393.896 394.648 393.89 394.642 393.884 394.637L339.008 339.76C339.007 339.758 339.006 339.757 339.004 339.756C337.979 338.721 337.403 337.322 337.403 335.865C337.403 334.41 337.977 333.013 339 331.978C358.895 312.183 371.003 285.89 373.114 257.905L374.004 248.474L374.022 248.286V248.098C374.022 183.071 321.307 130.357 256.28 130.357C191.257 130.357 138.545 183.066 138.539 248.087C138.539 248.091 138.539 248.094 138.539 248.098L138.511 253.23Z" stroke="black" stroke-width="8"/>
<path d="M118.446 237.823H69.6388C71.2866 214.521 77.3795 191.75 87.5883 170.738L129.888 195.142C123.776 208.651 119.911 223.068 118.446 237.823ZM129.789 307.508L86.2751 332.606C76.5957 311.192 70.9111 288.189 69.5022 264.731H118.342C119.777 279.522 123.644 293.976 129.789 307.508ZM99.3722 356.078L143.312 330.713C144.991 333.102 146.747 335.436 148.577 337.712L112.575 373.714C107.801 368.124 103.391 362.234 99.3722 356.078ZM174.493 140.531C162.468 149.196 151.919 159.745 143.253 171.77L101.051 147.457C114.183 128.13 130.853 111.461 150.18 98.3287L174.493 140.531ZM240.545 66.9164V115.724C225.79 117.189 211.374 121.054 197.865 127.166L173.461 84.8659C194.472 74.6572 217.243 68.5643 240.545 66.9164ZM334.537 84.8659L310.133 127.166C296.624 121.054 282.208 117.189 267.453 115.724V66.9164C290.754 68.5643 313.526 74.6572 334.537 84.8659ZM364.686 330.713L408.626 356.078C404.607 362.234 400.197 368.124 395.423 373.714L359.421 337.712C361.251 335.436 363.007 333.102 364.686 330.713ZM378.209 307.508C384.354 293.976 388.221 279.522 389.656 264.731H438.496C437.087 288.189 431.402 311.192 421.723 332.606L378.209 307.508ZM378.11 195.142L420.41 170.739C430.618 191.75 436.711 214.521 438.359 237.823H389.552C388.087 223.068 384.222 208.651 378.11 195.142ZM358.866 98.1715C378.04 111.515 394.483 128.405 407.307 147.93L364.724 171.78C356.235 159.623 345.819 148.933 333.885 140.133L358.866 98.1715Z" fill="url(#paint0_linear)" stroke="black" stroke-width="8"/>
<path d="M347.992 148.608L367.812 131.884L351.519 151.874C351.375 152.023 351.269 152.156 351.202 152.241C351.139 152.323 351.088 152.396 351.053 152.445L326.325 182.821L326.31 182.839L317.799 193.169L317.791 193.178L317.784 193.186L296.046 219.871L294.445 221.837L295.54 224.125C299.801 233.025 300.777 243.147 298.295 252.698C295.814 262.249 290.035 270.615 281.98 276.316C273.925 282.018 264.114 284.687 254.281 283.852C244.448 283.017 235.227 278.731 228.249 271.753C221.271 264.775 216.985 255.554 216.15 245.721C215.315 235.888 217.984 226.077 223.685 218.022C229.387 209.967 237.753 204.188 247.304 201.706C256.855 199.225 266.976 200.201 275.877 204.462L278.165 205.557L280.131 203.956L306.815 182.217L306.824 182.21L306.833 182.203L317.163 173.692L317.181 173.677L347.557 148.948C347.584 148.93 347.616 148.907 347.651 148.881C347.707 148.841 347.782 148.784 347.868 148.714C347.904 148.684 347.946 148.649 347.992 148.608Z" fill="#FF0000" stroke="black" stroke-width="8"/>
<path d="M258.188 268.77C251.332 268.77 244.757 265.975 239.91 261C235.062 256.025 232.339 249.277 232.339 242.241C232.339 235.205 235.062 228.457 239.91 223.482C244.757 218.507 251.332 215.712 258.188 215.712C260.295 215.735 262.394 216.002 264.443 216.508L247.59 230.621C247.456 230.731 247.335 230.856 247.228 230.993C245.704 232.45 244.482 234.207 243.634 236.16C242.786 238.112 242.331 240.22 242.294 242.357C242.257 244.495 242.64 246.617 243.42 248.599C244.2 250.581 245.361 252.382 246.834 253.893C248.307 255.405 250.061 256.596 251.992 257.397C253.923 258.198 255.992 258.591 258.074 258.553C260.157 258.515 262.211 258.048 264.113 257.178C266.015 256.308 267.728 255.053 269.148 253.489L269.509 253.118L283.261 235.821C283.754 237.924 284.014 240.078 284.036 242.241C284.036 249.277 281.313 256.025 276.466 261C271.618 265.975 265.043 268.77 258.188 268.77ZM261.703 246.167C260.714 247.092 259.417 247.59 258.079 247.561C256.742 247.531 255.467 246.975 254.517 246.008C254.036 245.514 253.655 244.927 253.398 244.28C253.14 243.633 253.011 242.94 253.018 242.241C253.015 240.909 253.494 239.624 254.362 238.633L294.169 205.313L261.703 246.167Z" fill="black"/>
<defs>
<linearGradient id="paint0_linear" x1="385.975" y1="303.344" x2="135.448" y2="303.344" gradientUnits="userSpaceOnUse">
<stop stop-color="#67EE37"/>
<stop offset="0.239583" stop-color="#FAFF00"/>
<stop offset="0.755208" stop-color="#FAFF00"/>
<stop offset="1" stop-color="#FF0000"/>
</linearGradient>
</defs>
</svg>

