<svg width="1994" height="1364" viewBox="0 0 1994 1364" fill="none" xmlns="http://www.w3.org/2000/svg">
<path d="M1317.37 375.553C1420.16 375.553 1503.49 291.482 1503.49 187.776C1503.49 84.0703 1420.16 0 1317.37 0C1214.57 0 1131.24 84.0703 1131.24 187.776C1131.24 291.482 1214.57 375.553 1317.37 375.553Z" fill="#F30000"/>
<path d="M330.899 767.005C382.304 767.005 423.976 724.963 423.976 673.102C423.976 621.24 382.304 579.198 330.899 579.198C279.494 579.198 237.822 621.24 237.822 673.102C237.822 724.963 279.494 767.005 330.899 767.005Z" fill="#DBD200"/>
<circle cx="997" cy="885" r="479" fill="#34C700"/>
<path d="M665.107 1220.01C482.388 1262.38 293.019 1294.97 168.224 1294.97C105.047 1294.97 19.2646 1288 4.01963 1227.7C-4.80174 1192.65 0.906204 1157.77 21.0451 1124.01C103.486 985.77 415.412 904.92 454.622 895.233C456.436 894.74 458.285 894.385 460.167 894.186C461.3 894.056 462.405 893.957 463.538 893.957H464.478C483.063 893.957 497.949 909.792 497.949 928.673C497.949 940.878 491.657 951.642 482.188 957.825C377.176 1031.38 360.992 1070.51 358.56 1081.8C367.802 1086.31 386.611 1091.84 423.26 1091.84C462.31 1091.84 510.535 1085.56 562.588 1075.68L1450.82 767.791C1554.02 716.586 1629.88 670.123 1640.9 644.766C1629.52 625.327 1534.72 601.345 1424.91 598.727C1407.46 598.303 1393.09 584.757 1391.5 567.221C1389.91 549.685 1401.59 533.716 1418.68 530.117L1418.81 530.089C1431.08 527.523 1677.52 476 1835.72 476C1925.52 476.031 1972.38 492.653 1987.66 529.922C1988.05 530.869 1988.41 531.851 1988.7 532.833C2034.04 679.252 1782.73 821.189 1456.01 956.679L665.107 1220.01Z" fill="#FDFFAE"/>
</svg>
