<svg width="608" height="540" viewBox="0 0 608 540" fill="none" xmlns="http://www.w3.org/2000/svg">
<path d="M278.885 419.8C279.785 419.901 280.585 419.901 281.485 419.901C309.085 419.901 360.985 393.401 390.885 320.501C400.385 297.301 400.986 279.201 392.585 266.701C387.185 258.601 378.385 253.401 366.785 251.201C376.285 245.401 386.785 240.901 391.585 239.101C400.785 236.401 407.285 237.301 411.685 242.201C420.385 252.001 419.786 274.701 418.786 282.601C418.286 286.701 420.685 290.701 424.586 292.201C428.487 293.701 432.886 292.401 435.286 289.001C452.386 265.101 449.286 235.201 449.185 234.101C445.385 191.301 420.286 184.901 405.685 184.901C389.486 184.901 369.485 192.201 346.185 206.501C326.985 218.301 271.685 268.501 272.485 317.301C272.885 340.201 285.885 353.601 308.185 354.101C298.985 362 289.885 365.3 280.085 363.701C257.585 359.901 262.985 325.401 263.185 324.001C263.985 319.401 261.185 315.001 256.785 313.701C252.285 312.401 247.585 314.601 245.785 318.801C232.785 348.701 232.485 377.601 244.885 398.001C253.185 410.9 265.485 418.9 278.885 419.8Z" fill="url(#paint0_radial)"/>
<path d="M87.7662 505.982C111.088 523.757 139.354 531.426 171.66 528.958C257.211 522.422 343.104 446.86 346.672 443.679C350.333 440.39 350.788 434.539 347.592 430.771C344.396 427.004 338.79 425.827 334.915 428.932L332 430.157C308.392 448.007 277.89 460.969 247.649 458.966C235.248 458.109 222.427 453.071 215.23 442.889C208.155 432.999 207.273 420.129 207.548 407.973C209.071 339.959 239.461 275.658 284.255 225.299C312.335 193.768 352.228 158.026 395.879 151.782C416.22 148.925 431.435 152.475 442.106 162.19C458.166 176.81 458.721 201.139 458.737 201.338C458.827 205.142 461.195 208.571 464.799 209.8C468.311 211.137 472.346 210.126 474.824 207.129C490.02 189.42 491.318 156.526 489.766 132.274C544.185 214.467 472.798 356.518 472.015 358.082C470.188 361.732 470.93 366.188 473.95 368.966C476.97 371.744 481.418 372.207 484.963 370.03C541.292 335.439 573.849 219.422 575.17 214.407C590.164 157.299 578.859 97.2853 545.739 57.5929C517.594 23.9391 475.911 7.36625 428.349 10.9998C384.377 14.3592 336.148 34.1917 285.02 69.8892C125.439 181.269 99.1382 331.911 95.2638 392.782C47.5008 312.387 107.911 188.124 108.617 186.867C110.622 182.902 109.442 177.978 105.84 175.445C102.229 172.812 97.2432 173.193 94.074 176.344C49.8587 219.838 21.2145 304.366 25.8011 377.529C29.3614 433.32 50.7058 477.723 87.7662 505.982Z" fill="url(#paint1_radial)"/>
<defs>
<radialGradient id="paint0_radial" cx="0" cy="0" r="1" gradientUnits="userSpaceOnUse" gradientTransform="translate(342.636 302.401) rotate(90) scale(117.5 106.831)">
<stop offset="0.0833333" stop-color="white"/>
<stop offset="1" stop-color="#7600AD"/>
</radialGradient>
<radialGradient id="paint1_radial" cx="0" cy="0" r="1" gradientUnits="userSpaceOnUse" gradientTransform="translate(303.927 269.679) rotate(-94.3688) scale(248.45 285.553)">
<stop offset="0.375" stop-color="white"/>
<stop offset="1" stop-color="#7600AD"/>
</radialGradient>
</defs>
</svg>
