<svg width="872" height="872" viewBox="0 0 872 872" fill="none" xmlns="http://www.w3.org/2000/svg">
<circle cx="436" cy="436" r="427.5" fill="#FFF9F9" stroke="black" stroke-width="17"/>
<path d="M618.936 232.9C611.851 208.758 548.81 206.002 493.619 222.198L519.272 309.62C574.463 293.425 626.019 257.041 618.936 232.9V232.9Z" fill="#FAFF00" stroke="black" stroke-width="4"/>
<path d="M461.593 218.839L461.593 218.839C466.507 218.838 471.034 222.052 472.487 227.003L498.894 316.996C500.661 323.016 497.212 329.328 491.193 331.095L265.426 397.344L265.989 399.263L264.07 399.826C266.303 407.432 261.946 415.411 254.336 417.647C252.984 418.043 251.622 418.232 250.287 418.232C244.076 418.232 238.351 414.168 236.515 407.911L236.515 407.911L202.585 292.28L200.667 292.843L202.585 292.28C200.353 284.672 204.71 276.694 212.32 274.46C219.93 272.226 227.907 276.584 230.14 284.195L230.703 286.114L232.622 285.551L458.388 219.302C459.458 218.988 460.536 218.839 461.593 218.839ZM432.9 244.775L283.788 288.531C283.788 288.531 283.788 288.531 283.788 288.531C277.527 290.368 273.941 296.933 275.78 303.193C277.292 308.348 282.002 311.685 287.111 311.685C288.214 311.685 289.337 311.529 290.445 311.203L439.557 267.445C445.817 265.61 449.405 259.045 447.566 252.783C445.731 246.525 439.162 242.927 432.902 244.774C432.901 244.775 432.901 244.775 432.9 244.775Z" fill="#B5A642" stroke="black" stroke-width="4"/>
<path d="M389.938 464.84L390.742 463.009L388.911 462.205C362.388 450.561 333.269 443.381 309.434 442.023C297.525 441.344 286.822 442.112 278.383 444.578C269.972 447.036 263.485 451.287 260.618 457.818L260.618 457.818C257.751 464.349 259.012 472.001 262.895 479.856C266.791 487.737 273.471 496.136 282.03 504.444C299.162 521.071 324.156 537.647 350.678 549.291L352.509 550.095L353.313 548.264L389.938 464.84Z" fill="#FAFF00" stroke="black" stroke-width="4"/>
<path d="M638.856 560.251L640.687 561.055L641.491 559.224C644.679 551.963 653.152 548.662 660.41 551.848C667.67 555.036 670.973 563.505 667.784 570.77L619.344 681.111L619.344 681.111C616.983 686.491 611.719 689.702 606.189 689.702C604.265 689.702 602.308 689.311 600.425 688.485C593.163 685.297 589.861 676.828 593.05 669.567L593.218 669.183V668.763V668.761V667.455L592.022 666.93L376.583 572.348L376.583 572.348C370.839 569.827 368.226 563.125 370.748 557.38C370.748 557.38 370.748 557.38 370.748 557.38L408.449 471.505L408.449 471.505C410.317 467.249 414.48 464.708 418.857 464.708C420.38 464.708 421.928 465.016 423.417 465.67L423.417 465.67L638.856 560.251ZM435.936 515.829L436.74 513.998L435.936 515.829L578.229 578.297C579.771 578.975 581.384 579.297 582.974 579.297C587.516 579.297 591.852 576.66 593.797 572.229C596.42 566.254 593.703 559.284 587.728 556.661L445.435 494.192L445.435 494.192C439.458 491.569 432.49 494.288 429.867 500.261L429.867 500.261C427.244 506.235 429.961 513.206 435.936 515.829Z" fill="#B5A642" stroke="black" stroke-width="4"/>
</svg>
