<svg width="154" height="419" viewBox="0 0 154 419" fill="none" xmlns="http://www.w3.org/2000/svg">
<path d="M74.5438 0.130326C49.3847 0.275705 29.3333 60.1067 29.6651 117.624L120.771 117.1C120.441 59.5831 99.7025 -0.0134817 74.5438 0.130326Z" fill="white"/>
<path d="M137.014 385.286L135.661 150.005C135.618 142.626 129.603 136.68 122.224 136.722L28.4386 137.261C22.3679 137.296 17.2672 141.373 15.6739 146.926C15.3303 148.123 15.1486 149.39 15.156 150.697L16.5098 385.979C7.47459 386.031 0.192344 393.395 0.245529 402.431C0.298713 411.466 7.66372 418.747 16.6973 418.695L137.202 418.002C144.635 417.96 150.882 412.967 152.835 406.167C153.256 404.702 153.476 403.152 153.468 401.551C153.413 392.515 146.046 385.234 137.014 385.286ZM37.4979 337.601L36.6036 182.201C36.5634 176.782 40.9412 172.36 46.3603 172.33C51.7819 172.298 56.201 176.668 56.2309 182.087L57.1267 337.487C57.1335 338.447 57.0003 339.379 56.7479 340.258C55.5761 344.338 51.8299 347.332 47.3685 347.357C41.9485 347.39 37.5288 343.022 37.4979 337.601Z" fill="white"/>
</svg>
