<svg width="2158" height="385" viewBox="0 0 2158 385" fill="none" xmlns="http://www.w3.org/2000/svg">
<path d="M1429.05 184.68C1359.61 112.738 1241.99 69.0803 1133.6 75.3709C1083.9 27.535 1016.4 0.0493683 946.452 0.0493683C942.407 0.0191975 938.679 2.2971 936.852 5.90252C935.026 9.53811 935.403 13.8676 937.833 17.111L987.674 83.5774L972.444 84.4373C966.784 84.7541 962.376 89.4306 962.376 95.1027L962.376 289.011C962.376 291.937 963.569 294.608 965.516 296.554C967.312 298.349 969.742 299.51 972.459 299.661L987.689 300.521L937.849 366.987C935.418 370.231 935.569 374.545 937.365 378.151C937.833 379.071 938.452 379.901 939.192 380.64C941.335 382.782 944.46 384.034 947.463 384.049C1016.44 384.049 1083.94 356.563 1133.65 308.728C1242.21 314.973 1360.09 271.648 1429.07 199.418C1432.98 195.3 1432.98 188.813 1429.05 184.68ZM1229.21 245.384C1214.51 245.384 1201.16 239.41 1191.49 229.74C1181.81 220.07 1175.84 206.735 1175.84 192.042C1175.85 162.64 1199.79 138.715 1229.21 138.7C1258.64 138.7 1282.58 162.625 1282.58 192.042C1282.58 221.458 1258.63 245.399 1229.21 245.384Z" fill="white"/>
<path d="M870.036 126.238C837.679 126.238 742.375 177.001 731.625 182.778C728.162 184.634 726.015 188.254 726 192.161C726 195.058 727.149 197.743 729.13 199.719C729.856 200.443 730.687 201.062 731.625 201.575C742.375 207.352 837.679 258.115 870.036 258.115C906.476 258.115 936.127 228.532 936.127 192.176C936.112 155.805 906.461 126.253 870.036 126.238Z" fill="url(#paint0_linear)"/>
<path d="M703.055 184.68C633.607 112.738 515.994 69.0803 407.603 75.3709C357.899 27.535 290.398 0.0493683 220.452 0.0493683C216.407 0.0191975 212.679 2.2971 210.852 5.90252C209.026 9.53811 209.403 13.8676 211.833 17.111L261.674 83.5774L246.444 84.4373C240.784 84.7541 236.376 89.4306 236.376 95.1027L236.376 289.011C236.376 291.937 237.569 294.608 239.516 296.554C241.312 298.349 243.742 299.51 246.459 299.661L261.689 300.521L211.849 366.987C209.418 370.231 209.569 374.545 211.365 378.151C211.833 379.071 212.452 379.901 213.192 380.64C215.335 382.782 218.46 384.034 221.463 384.049C290.443 384.049 357.944 356.563 407.649 308.728C516.205 314.973 634.09 271.648 703.07 199.418C706.979 195.3 706.979 188.813 703.055 184.68ZM503.209 245.384C488.508 245.384 475.164 239.41 465.489 229.74C455.814 220.07 449.837 206.735 449.837 192.042C449.852 162.64 473.791 138.715 503.209 138.7C532.643 138.7 556.582 162.625 556.582 192.042C556.582 221.458 532.628 245.399 503.209 245.384Z" fill="white"/>
<path d="M1945.35 184.631C1875.9 112.688 1758.29 69.0312 1649.9 75.3219C1600.19 27.4859 1532.69 0.000296067 1462.75 0.000296067C1458.7 -0.0298748 1454.97 2.24803 1453.15 5.85345C1451.32 9.48904 1451.7 13.8186 1454.13 17.0619L1503.97 83.5283L1488.74 84.3882C1483.08 84.705 1478.67 89.3815 1478.67 95.0536L1478.67 288.962C1478.67 291.888 1479.86 294.558 1481.81 296.504C1483.61 298.3 1486.04 299.461 1488.75 299.612L1503.98 300.472L1454.14 366.938C1451.71 370.182 1451.86 374.496 1453.66 378.102C1454.13 379.022 1454.75 379.852 1455.49 380.591C1457.63 382.733 1460.75 383.985 1463.76 384C1532.74 384 1600.24 356.514 1649.94 308.678C1758.5 314.924 1876.38 271.598 1945.36 199.369C1949.27 195.251 1949.27 188.764 1945.35 184.631ZM1745.5 245.335C1730.8 245.335 1717.46 239.361 1707.78 229.691C1698.11 220.021 1692.13 206.686 1692.13 191.993C1692.15 162.591 1716.08 138.666 1745.5 138.651C1774.94 138.651 1798.88 162.576 1798.88 191.993C1798.88 221.409 1774.92 245.35 1745.5 245.335Z" fill="white"/>
<path d="M1962.71 172.457C1969.45 167.109 1980.84 140.714 1982.12 137.726C1982.53 136.764 1982.37 135.65 1981.72 134.829C1981.24 134.221 1980.56 133.848 1979.82 133.761C1979.54 133.729 1979.27 133.737 1978.99 133.785C1975.79 134.35 1947.5 139.458 1940.76 144.806C1933.17 150.829 1931.92 161.933 1937.98 169.555C1944.03 177.179 1955.13 178.475 1962.71 172.457Z" fill="url(#paint1_linear)"/>
<path d="M1978.57 209.93C1987.17 209.93 2012.5 196.34 2015.36 194.793C2016.28 194.296 2016.85 193.327 2016.85 192.281C2016.85 191.506 2016.55 190.787 2016.02 190.258C2015.83 190.064 2015.61 189.898 2015.36 189.761C2012.5 188.214 1987.17 174.624 1978.57 174.624C1968.88 174.624 1961 182.544 1961 192.277C1961 202.014 1968.88 209.926 1978.57 209.93Z" fill="url(#paint2_linear)"/>
<path d="M1941.11 243.823C1948.02 248.947 1976.46 253.124 1979.68 253.584C1980.71 253.733 1981.75 253.295 1982.38 252.457C1982.84 251.834 1983.02 251.075 1982.91 250.336C1982.87 250.066 1982.8 249.801 1982.68 249.542C1981.3 246.597 1969.05 220.59 1962.14 215.466C1954.36 209.696 1943.31 211.361 1937.52 219.178C1931.72 227.001 1933.34 238.051 1941.11 243.823Z" fill="url(#paint3_linear)"/>
<defs>
<linearGradient id="paint0_linear" x1="937.743" y1="191.469" x2="721.57" y2="192.18" gradientUnits="userSpaceOnUse">
<stop stop-color="#FFA959" stop-opacity="0"/>
<stop offset="1" stop-color="#E77105"/>
</linearGradient>
<linearGradient id="paint1_linear" x1="1937.76" y1="169.971" x2="1982.65" y2="134.095" gradientUnits="userSpaceOnUse">
<stop stop-color="#FFA959" stop-opacity="0"/>
<stop offset="1" stop-color="#E77105"/>
</linearGradient>
<linearGradient id="paint2_linear" x1="1960.57" y1="192.466" x2="2018.03" y2="192.279" gradientUnits="userSpaceOnUse">
<stop stop-color="#FFA959" stop-opacity="0"/>
<stop offset="1" stop-color="#E77105"/>
</linearGradient>
<linearGradient id="paint3_linear" x1="1937.06" y1="219.074" x2="1983.32" y2="253.157" gradientUnits="userSpaceOnUse">
<stop stop-color="#FFA959" stop-opacity="0"/>
<stop offset="1" stop-color="#E77105"/>
</linearGradient>
</defs>
</svg>
